STARTFONT 2.1
FONT -FontForge-Monoton-Book-R-Normal--8-80-72-72-P-54-ISO10646-1
SIZE 8 72 72
FONTBOUNDINGBOX 15 12 -1 -3
COMMENT "Generated by fontforge, http://fontforge.sourceforge.net"
COMMENT "Copyright (c) 2011 by vernon adams. All rights reserved."
STARTPROPERTIES 40
FOUNDRY "FontForge"
FAMILY_NAME "Monoton"
WEIGHT_NAME "Book"
SLANT "R"
SETWIDTH_NAME "Normal"
ADD_STYLE_NAME ""
PIXEL_SIZE 8
POINT_SIZE 80
RESOLUTION_X 72
RESOLUTION_Y 72
SPACING "P"
AVERAGE_WIDTH 54
CHARSET_REGISTRY "ISO10646"
CHARSET_ENCODING "1"
FONTNAME_REGISTRY ""
CHARSET_COLLECTIONS "ISO8859-2 ISO8859-9 ISO8859-4 ISO10646-1"
FONT_NAME "Monoton-Regular"
FACE_NAME "Monoton"
COPYRIGHT "Copyright (c) 2011 by vernon adams. All rights reserved."
FONT_VERSION "1.000"
FONT_ASCENT 6
FONT_DESCENT 2
UNDERLINE_POSITION 0
UNDERLINE_THICKNESS 1
X_HEIGHT 5
CAP_HEIGHT 5
DEFAULT_CHAR 1
RAW_ASCENT 799
RAW_DESCENT 200
NORM_SPACE 1
RELATIVE_WEIGHT 40
RELATIVE_SETWIDTH 50
SUPERSCRIPT_X 0
SUPERSCRIPT_Y 2
SUPERSCRIPT_SIZE 4
SUBSCRIPT_X 0
SUBSCRIPT_Y 0
SUBSCRIPT_SIZE 4
AVG_LOWERCASE_WIDTH 58
AVG_UPPERCASE_WIDTH 63
ENDPROPERTIES
CHARS 372
STARTCHAR glyph1.dup1
ENCODING 0
SWIDTH 108 0
DWIDTH 1 0
BBX 1 1 0 0
BITMAP
00
ENDCHAR
STARTCHAR uni0002
ENCODING 2
SWIDTH 108 0
DWIDTH 1 0
BBX 1 1 0 0
BITMAP
00
ENDCHAR
STARTCHAR uni0009
ENCODING 9
SWIDTH 108 0
DWIDTH 1 0
BBX 1 1 0 0
BITMAP
00
ENDCHAR
STARTCHAR uni000A
ENCODING 10
SWIDTH 108 0
DWIDTH 1 0
BBX 1 1 0 0
BITMAP
00
ENDCHAR
STARTCHAR uni000D
ENCODING 13
SWIDTH 108 0
DWIDTH 1 0
BBX 1 1 0 0
BITMAP
00
ENDCHAR
STARTCHAR space
ENCODING 32
SWIDTH 108 0
DWIDTH 1 0
BBX 1 1 0 0
BITMAP
00
ENDCHAR
STARTCHAR exclam
ENCODING 33
SWIDTH 336 0
DWIDTH 3 0
BBX 2 6 0 0
BITMAP
C0
C0
C0
C0
00
C0
ENDCHAR
STARTCHAR quotedbl
ENCODING 34
SWIDTH 538 0
DWIDTH 4 0
BBX 4 2 0 4
BITMAP
F0
F0
ENDCHAR
STARTCHAR numbersign
ENCODING 35
SWIDTH 1014 0
DWIDTH 8 0
BBX 8 7 0 0
BITMAP
16
6D
7F
24
2C
DA
6C
ENDCHAR
STARTCHAR dollar
ENCODING 36
SWIDTH 686 0
DWIDTH 5 0
BBX 5 9 0 -1
BITMAP
20
30
F8
C0
B8
68
38
F8
20
ENDCHAR
STARTCHAR percent
ENCODING 37
SWIDTH 1504 0
DWIDTH 12 0
BBX 12 8 0 -1
BITMAP
3100
6A00
DA40
FEA0
77F0
05F0
0DF0
0C00
ENDCHAR
STARTCHAR ampersand
ENCODING 38
SWIDTH 1029 0
DWIDTH 8 0
BBX 8 6 0 0
BITMAP
76
F6
CF
FF
DF
7B
ENDCHAR
STARTCHAR quotesingle
ENCODING 39
SWIDTH 257 0
DWIDTH 2 0
BBX 2 2 0 4
BITMAP
C0
C0
ENDCHAR
STARTCHAR parenleft
ENCODING 40
SWIDTH 410 0
DWIDTH 3 0
BBX 3 8 0 -1
BITMAP
20
60
C0
C0
C0
C0
60
20
ENDCHAR
STARTCHAR parenright
ENCODING 41
SWIDTH 408 0
DWIDTH 3 0
BBX 3 8 0 -1
BITMAP
C0
A0
60
60
60
60
E0
80
ENDCHAR
STARTCHAR asterisk
ENCODING 42
SWIDTH 664 0
DWIDTH 5 0
BBX 5 5 0 1
BITMAP
20
58
E8
F8
A8
ENDCHAR
STARTCHAR plus
ENCODING 43
SWIDTH 601 0
DWIDTH 5 0
BBX 5 4 0 1
BITMAP
60
F8
F8
60
ENDCHAR
STARTCHAR comma
ENCODING 44
SWIDTH 252 0
DWIDTH 2 0
BBX 2 2 0 -1
BITMAP
C0
C0
ENDCHAR
STARTCHAR hyphen
ENCODING 45
SWIDTH 473 0
DWIDTH 4 0
BBX 3 1 0 3
BITMAP
E0
ENDCHAR
STARTCHAR period
ENCODING 46
SWIDTH 255 0
DWIDTH 2 0
BBX 2 1 0 0
BITMAP
C0
ENDCHAR
STARTCHAR slash
ENCODING 47
SWIDTH 447 0
DWIDTH 4 0
BBX 3 7 0 -1
BITMAP
20
60
60
40
40
C0
C0
ENDCHAR
STARTCHAR zero
ENCODING 48
SWIDTH 843 0
DWIDTH 7 0
BBX 7 7 0 0
BITMAP
38
54
AC
CE
CC
7C
7C
ENDCHAR
STARTCHAR one
ENCODING 49
SWIDTH 426 0
DWIDTH 3 0
BBX 3 6 0 0
BITMAP
E0
60
60
60
60
60
ENDCHAR
STARTCHAR two
ENCODING 50
SWIDTH 583 0
DWIDTH 5 0
BBX 4 7 0 0
BITMAP
E0
F0
30
30
60
80
F0
ENDCHAR
STARTCHAR three
ENCODING 51
SWIDTH 612 0
DWIDTH 5 0
BBX 5 7 0 0
BITMAP
E0
F0
18
70
58
68
F0
ENDCHAR
STARTCHAR four
ENCODING 52
SWIDTH 622 0
DWIDTH 5 0
BBX 5 6 0 0
BITMAP
30
60
50
F8
E8
10
ENDCHAR
STARTCHAR five
ENCODING 53
SWIDTH 691 0
DWIDTH 6 0
BBX 5 6 0 0
BITMAP
F8
C0
B8
B8
68
F8
ENDCHAR
STARTCHAR six
ENCODING 54
SWIDTH 781 0
DWIDTH 6 0
BBX 6 7 0 0
BITMAP
38
7C
C0
F8
DC
FC
7C
ENDCHAR
STARTCHAR seven
ENCODING 55
SWIDTH 631 0
DWIDTH 5 0
BBX 5 6 0 0
BITMAP
F8
30
30
30
50
60
ENDCHAR
STARTCHAR eight
ENCODING 56
SWIDTH 808 0
DWIDTH 6 0
BBX 6 7 0 0
BITMAP
38
74
CC
7C
B4
FC
7C
ENDCHAR
STARTCHAR nine
ENCODING 57
SWIDTH 782 0
DWIDTH 6 0
BBX 6 7 0 0
BITMAP
30
7C
CC
BC
5C
3C
F8
ENDCHAR
STARTCHAR colon
ENCODING 58
SWIDTH 262 0
DWIDTH 2 0
BBX 2 4 0 1
BITMAP
C0
C0
C0
C0
ENDCHAR
STARTCHAR semicolon
ENCODING 59
SWIDTH 261 0
DWIDTH 2 0
BBX 2 5 0 0
BITMAP
C0
C0
C0
C0
C0
ENDCHAR
STARTCHAR less
ENCODING 60
SWIDTH 670 0
DWIDTH 5 0
BBX 5 6 0 0
BITMAP
18
68
D0
E8
38
08
ENDCHAR
STARTCHAR equal
ENCODING 61
SWIDTH 473 0
DWIDTH 4 0
BBX 3 4 0 1
BITMAP
E0
E0
E0
E0
ENDCHAR
STARTCHAR greater
ENCODING 62
SWIDTH 670 0
DWIDTH 5 0
BBX 5 6 0 0
BITMAP
C0
F8
38
F8
E0
80
ENDCHAR
STARTCHAR question
ENCODING 63
SWIDTH 693 0
DWIDTH 6 0
BBX 5 7 0 0
BITMAP
70
A8
58
78
70
00
40
ENDCHAR
STARTCHAR at
ENCODING 64
SWIDTH 1076 0
DWIDTH 9 0
BBX 8 8 0 -1
BITMAP
3E
7F
DD
FD
AD
5F
60
18
ENDCHAR
STARTCHAR A
ENCODING 65
SWIDTH 936 0
DWIDTH 8 0
BBX 7 6 0 0
BITMAP
38
34
5C
6C
7E
C6
ENDCHAR
STARTCHAR B
ENCODING 66
SWIDTH 862 0
DWIDTH 7 0
BBX 7 6 0 0
BITMAP
FC
FA
C4
FE
FA
FC
ENDCHAR
STARTCHAR C
ENCODING 67
SWIDTH 852 0
DWIDTH 7 0
BBX 7 7 0 0
BITMAP
38
5E
A4
C0
C0
7E
7C
ENDCHAR
STARTCHAR D
ENCODING 68
SWIDTH 886 0
DWIDTH 7 0
BBX 7 6 0 0
BITMAP
FC
FA
C6
C6
FC
FC
ENDCHAR
STARTCHAR E
ENCODING 69
SWIDTH 706 0
DWIDTH 6 0
BBX 5 6 0 0
BITMAP
F8
C0
F0
F0
C0
F8
ENDCHAR
STARTCHAR F
ENCODING 70
SWIDTH 683 0
DWIDTH 5 0
BBX 5 6 0 0
BITMAP
F8
C0
F8
F8
C0
C0
ENDCHAR
STARTCHAR G
ENCODING 71
SWIDTH 908 0
DWIDTH 7 0
BBX 7 7 0 0
BITMAP
38
5E
A4
C0
E6
5E
7E
ENDCHAR
STARTCHAR H
ENCODING 72
SWIDTH 901 0
DWIDTH 7 0
BBX 7 6 0 0
BITMAP
C6
C6
FE
FE
C6
C6
ENDCHAR
STARTCHAR I
ENCODING 73
SWIDTH 338 0
DWIDTH 3 0
BBX 2 6 0 0
BITMAP
C0
C0
C0
C0
C0
C0
ENDCHAR
STARTCHAR J
ENCODING 74
SWIDTH 434 0
DWIDTH 3 0
BBX 3 6 0 0
BITMAP
60
60
60
60
E0
C0
ENDCHAR
STARTCHAR K
ENCODING 75
SWIDTH 815 0
DWIDTH 7 0
BBX 6 6 0 0
BITMAP
CC
D8
F8
D8
D4
CC
ENDCHAR
STARTCHAR L
ENCODING 76
SWIDTH 604 0
DWIDTH 5 0
BBX 5 6 0 0
BITMAP
C0
C0
C0
C0
C0
F8
ENDCHAR
STARTCHAR M
ENCODING 77
SWIDTH 920 0
DWIDTH 7 0
BBX 7 6 0 0
BITMAP
C6
EE
DE
FE
C6
C6
ENDCHAR
STARTCHAR N
ENCODING 78
SWIDTH 877 0
DWIDTH 7 0
BBX 7 6 0 0
BITMAP
E6
F6
F6
DE
D6
CE
ENDCHAR
STARTCHAR O
ENCODING 79
SWIDTH 933 0
DWIDTH 7 0
BBX 7 7 0 0
BITMAP
38
5C
A6
C6
C6
7E
7C
ENDCHAR
STARTCHAR P
ENCODING 80
SWIDTH 850 0
DWIDTH 7 0
BBX 7 6 0 0
BITMAP
FC
FA
DC
DC
C0
C0
ENDCHAR
STARTCHAR Q
ENCODING 81
SWIDTH 937 0
DWIDTH 8 0
BBX 7 8 0 -1
BITMAP
38
5C
A6
C6
DA
76
7C
06
ENDCHAR
STARTCHAR R
ENCODING 82
SWIDTH 843 0
DWIDTH 7 0
BBX 7 6 0 0
BITMAP
FC
FE
F4
FC
D4
CC
ENDCHAR
STARTCHAR S
ENCODING 83
SWIDTH 682 0
DWIDTH 5 0
BBX 5 7 0 0
BITMAP
30
F8
C0
B8
68
38
F8
ENDCHAR
STARTCHAR T
ENCODING 84
SWIDTH 591 0
DWIDTH 5 0
BBX 4 6 0 0
BITMAP
F0
60
60
60
60
60
ENDCHAR
STARTCHAR U
ENCODING 85
SWIDTH 905 0
DWIDTH 7 0
BBX 7 6 0 0
BITMAP
C6
C6
C6
E6
5A
7C
ENDCHAR
STARTCHAR V
ENCODING 86
SWIDTH 940 0
DWIDTH 8 0
BBX 7 6 0 0
BITMAP
E6
6A
6C
3C
38
38
ENDCHAR
STARTCHAR W
ENCODING 87
SWIDTH 1161 0
DWIDTH 9 0
BBX 9 6 0 0
BITMAP
DD80
6E80
5B00
6F00
7700
3500
ENDCHAR
STARTCHAR X
ENCODING 88
SWIDTH 876 0
DWIDTH 7 0
BBX 7 6 0 0
BITMAP
EE
78
38
38
5C
EE
ENDCHAR
STARTCHAR Y
ENCODING 89
SWIDTH 789 0
DWIDTH 6 0
BBX 6 6 0 0
BITMAP
EC
78
58
30
30
30
ENDCHAR
STARTCHAR Z
ENCODING 90
SWIDTH 854 0
DWIDTH 7 0
BBX 7 6 0 0
BITMAP
FE
FE
3C
F0
EE
FE
ENDCHAR
STARTCHAR bracketleft
ENCODING 91
SWIDTH 320 0
DWIDTH 3 0
BBX 2 8 0 -1
BITMAP
C0
C0
C0
C0
C0
C0
80
C0
ENDCHAR
STARTCHAR backslash
ENCODING 92
SWIDTH 448 0
DWIDTH 4 0
BBX 3 7 0 -1
BITMAP
C0
40
40
60
60
20
20
ENDCHAR
STARTCHAR bracketright
ENCODING 93
SWIDTH 319 0
DWIDTH 3 0
BBX 2 8 0 -1
BITMAP
C0
C0
40
40
40
40
C0
C0
ENDCHAR
STARTCHAR asciicircum
ENCODING 94
SWIDTH 475 0
DWIDTH 4 0
BBX 4 3 0 3
BITMAP
40
60
F0
ENDCHAR
STARTCHAR underscore
ENCODING 95
SWIDTH 511 0
DWIDTH 4 0
BBX 4 1 0 -1
BITMAP
F0
ENDCHAR
STARTCHAR grave
ENCODING 96
SWIDTH 472 0
DWIDTH 4 0
BBX 4 2 0 6
BITMAP
80
70
ENDCHAR
STARTCHAR a
ENCODING 97
SWIDTH 832 0
DWIDTH 7 0
BBX 6 6 0 0
BITMAP
38
74
CC
CC
BC
7C
ENDCHAR
STARTCHAR b
ENCODING 98
SWIDTH 720 0
DWIDTH 6 0
BBX 5 6 0 0
BITMAP
F0
F8
F8
F8
C8
F8
ENDCHAR
STARTCHAR c
ENCODING 99
SWIDTH 736 0
DWIDTH 6 0
BBX 6 6 0 0
BITMAP
38
7C
C0
C0
B8
7C
ENDCHAR
STARTCHAR d
ENCODING 100
SWIDTH 833 0
DWIDTH 7 0
BBX 6 6 0 0
BITMAP
F0
FC
CC
CC
FC
F8
ENDCHAR
STARTCHAR e
ENCODING 101
SWIDTH 666 0
DWIDTH 5 0
BBX 5 6 0 0
BITMAP
F8
F8
F8
F8
C0
F8
ENDCHAR
STARTCHAR f
ENCODING 102
SWIDTH 625 0
DWIDTH 5 0
BBX 5 6 0 0
BITMAP
F8
F8
C0
F8
C0
C0
ENDCHAR
STARTCHAR g
ENCODING 103
SWIDTH 827 0
DWIDTH 7 0
BBX 6 6 0 0
BITMAP
38
7C
C0
CC
BC
7C
ENDCHAR
STARTCHAR h
ENCODING 104
SWIDTH 830 0
DWIDTH 7 0
BBX 6 6 0 0
BITMAP
CC
CC
FC
FC
CC
CC
ENDCHAR
STARTCHAR i
ENCODING 105
SWIDTH 337 0
DWIDTH 3 0
BBX 2 6 0 0
BITMAP
C0
C0
C0
C0
C0
C0
ENDCHAR
STARTCHAR j
ENCODING 106
SWIDTH 393 0
DWIDTH 3 0
BBX 3 7 0 -1
BITMAP
60
60
60
60
60
C0
C0
ENDCHAR
STARTCHAR k
ENCODING 107
SWIDTH 801 0
DWIDTH 6 0
BBX 6 6 0 0
BITMAP
CC
D4
D8
F8
D8
CC
ENDCHAR
STARTCHAR l
ENCODING 108
SWIDTH 583 0
DWIDTH 5 0
BBX 4 6 0 0
BITMAP
C0
C0
C0
C0
C0
F0
ENDCHAR
STARTCHAR m
ENCODING 109
SWIDTH 1167 0
DWIDTH 9 0
BBX 9 6 0 0
BITMAP
7F00
7E80
CD80
CD80
CD80
CD80
ENDCHAR
STARTCHAR n
ENCODING 110
SWIDTH 787 0
DWIDTH 6 0
BBX 6 6 0 0
BITMAP
EC
AC
FC
FC
DC
DC
ENDCHAR
STARTCHAR o
ENCODING 111
SWIDTH 833 0
DWIDTH 7 0
BBX 6 6 0 0
BITMAP
38
7C
CC
CC
BC
7C
ENDCHAR
STARTCHAR p
ENCODING 112
SWIDTH 781 0
DWIDTH 6 0
BBX 6 6 0 0
BITMAP
F0
FC
CC
D4
D8
C0
ENDCHAR
STARTCHAR q
ENCODING 113
SWIDTH 788 0
DWIDTH 6 0
BBX 6 7 0 -1
BITMAP
3C
5C
EC
EC
DC
3C
0C
ENDCHAR
STARTCHAR r
ENCODING 114
SWIDTH 831 0
DWIDTH 7 0
BBX 6 6 0 0
BITMAP
F8
F4
CC
FC
F8
DC
ENDCHAR
STARTCHAR s
ENCODING 115
SWIDTH 683 0
DWIDTH 5 0
BBX 5 6 0 0
BITMAP
70
B8
E0
78
48
F8
ENDCHAR
STARTCHAR t
ENCODING 116
SWIDTH 588 0
DWIDTH 5 0
BBX 4 6 0 0
BITMAP
F0
F0
60
60
60
60
ENDCHAR
STARTCHAR u
ENCODING 117
SWIDTH 795 0
DWIDTH 6 0
BBX 6 6 0 0
BITMAP
CC
CC
CC
CC
FC
78
ENDCHAR
STARTCHAR v
ENCODING 118
SWIDTH 855 0
DWIDTH 7 0
BBX 7 6 0 0
BITMAP
CE
AC
6C
58
38
28
ENDCHAR
STARTCHAR w
ENCODING 119
SWIDTH 1129 0
DWIDTH 9 0
BBX 9 6 0 0
BITMAP
D580
D580
D580
D580
EB80
7F00
ENDCHAR
STARTCHAR x
ENCODING 120
SWIDTH 790 0
DWIDTH 6 0
BBX 6 6 0 0
BITMAP
AC
78
38
38
58
FC
ENDCHAR
STARTCHAR y
ENCODING 121
SWIDTH 733 0
DWIDTH 6 0
BBX 6 6 0 0
BITMAP
CC
78
78
30
30
30
ENDCHAR
STARTCHAR z
ENCODING 122
SWIDTH 714 0
DWIDTH 6 0
BBX 5 6 0 0
BITMAP
F8
F8
30
70
A0
F8
ENDCHAR
STARTCHAR braceleft
ENCODING 123
SWIDTH 396 0
DWIDTH 3 0
BBX 3 9 0 -2
BITMAP
20
60
40
40
C0
40
40
60
20
ENDCHAR
STARTCHAR bar
ENCODING 124
SWIDTH 266 0
DWIDTH 2 0
BBX 2 7 0 -1
BITMAP
C0
C0
C0
C0
C0
C0
C0
ENDCHAR
STARTCHAR braceright
ENCODING 125
SWIDTH 396 0
DWIDTH 3 0
BBX 3 9 0 -2
BITMAP
C0
C0
40
40
60
40
40
C0
C0
ENDCHAR
STARTCHAR asciitilde
ENCODING 126
SWIDTH 665 0
DWIDTH 5 0
BBX 5 2 0 4
BITMAP
F8
B0
ENDCHAR
STARTCHAR uni00A0
ENCODING 160
SWIDTH 108 0
DWIDTH 1 0
BBX 1 1 0 0
BITMAP
00
ENDCHAR
STARTCHAR exclamdown
ENCODING 161
SWIDTH 336 0
DWIDTH 3 0
BBX 2 6 0 0
BITMAP
C0
C0
C0
C0
00
C0
ENDCHAR
STARTCHAR cent
ENCODING 162
SWIDTH 708 0
DWIDTH 6 0
BBX 6 8 0 -1
BITMAP
10
7C
B8
C0
B0
6C
10
10
ENDCHAR
STARTCHAR sterling
ENCODING 163
SWIDTH 689 0
DWIDTH 6 0
BBX 5 7 0 0
BITMAP
30
78
C0
F8
F8
C0
F8
ENDCHAR
STARTCHAR currency
ENCODING 164
SWIDTH 715 0
DWIDTH 6 0
BBX 6 6 0 0
BITMAP
CC
78
48
48
78
CC
ENDCHAR
STARTCHAR yen
ENCODING 165
SWIDTH 796 0
DWIDTH 6 0
BBX 6 6 0 0
BITMAP
EC
78
58
30
78
30
ENDCHAR
STARTCHAR brokenbar
ENCODING 166
SWIDTH 263 0
DWIDTH 2 0
BBX 2 7 0 -1
BITMAP
C0
C0
C0
00
C0
C0
C0
ENDCHAR
STARTCHAR section
ENCODING 167
SWIDTH 108 0
DWIDTH 1 0
BBX 1 1 0 0
BITMAP
00
ENDCHAR
STARTCHAR dieresis
ENCODING 168
SWIDTH 556 0
DWIDTH 4 0
BBX 4 1 0 6
BITMAP
D0
ENDCHAR
STARTCHAR copyright
ENCODING 169
SWIDTH 869 0
DWIDTH 7 0
BBX 7 7 0 0
BITMAP
38
7C
C2
C2
C2
7C
38
ENDCHAR
STARTCHAR ordfeminine
ENCODING 170
SWIDTH 833 0
DWIDTH 7 0
BBX 6 6 0 0
BITMAP
38
FC
AC
CC
7C
7C
ENDCHAR
STARTCHAR guillemotleft
ENCODING 171
SWIDTH 911 0
DWIDTH 7 0
BBX 7 4 0 1
BITMAP
22
DE
EA
26
ENDCHAR
STARTCHAR logicalnot
ENCODING 172
SWIDTH 718 0
DWIDTH 6 0
BBX 5 2 0 2
BITMAP
F8
08
ENDCHAR
STARTCHAR registered
ENCODING 174
SWIDTH 869 0
DWIDTH 7 0
BBX 7 7 0 0
BITMAP
38
54
AA
BA
AA
44
38
ENDCHAR
STARTCHAR degree
ENCODING 176
SWIDTH 330 0
DWIDTH 3 0
BBX 2 2 0 6
BITMAP
C0
C0
ENDCHAR
STARTCHAR plusminus
ENCODING 177
SWIDTH 598 0
DWIDTH 5 0
BBX 5 5 0 0
BITMAP
60
F8
F8
60
70
ENDCHAR
STARTCHAR uni00B2
ENCODING 178
SWIDTH 435 0
DWIDTH 3 0
BBX 3 5 0 1
BITMAP
E0
20
40
80
E0
ENDCHAR
STARTCHAR uni00B3
ENCODING 179
SWIDTH 515 0
DWIDTH 4 0
BBX 4 5 0 1
BITMAP
E0
30
70
B0
F0
ENDCHAR
STARTCHAR acute
ENCODING 180
SWIDTH 472 0
DWIDTH 4 0
BBX 4 2 0 6
BITMAP
20
F0
ENDCHAR
STARTCHAR uni00B5
ENCODING 181
SWIDTH 802 0
DWIDTH 6 0
BBX 6 7 0 -1
BITMAP
CC
CC
CC
CC
DC
D8
C0
ENDCHAR
STARTCHAR paragraph
ENCODING 182
SWIDTH 676 0
DWIDTH 5 0
BBX 5 7 0 -1
BITMAP
38
58
F8
B8
78
18
18
ENDCHAR
STARTCHAR periodcentered
ENCODING 183
SWIDTH 260 0
DWIDTH 2 0
BBX 2 2 0 3
BITMAP
C0
C0
ENDCHAR
STARTCHAR cedilla
ENCODING 184
SWIDTH 321 0
DWIDTH 3 0
BBX 2 3 0 -3
BITMAP
40
C0
C0
ENDCHAR
STARTCHAR uni00B9
ENCODING 185
SWIDTH 359 0
DWIDTH 3 0
BBX 3 4 0 2
BITMAP
E0
60
60
60
ENDCHAR
STARTCHAR ordmasculine
ENCODING 186
SWIDTH 835 0
DWIDTH 7 0
BBX 6 6 0 0
BITMAP
38
74
CC
CC
7C
7C
ENDCHAR
STARTCHAR guillemotright
ENCODING 187
SWIDTH 912 0
DWIDTH 7 0
BBX 7 4 0 1
BITMAP
88
F6
AA
CC
ENDCHAR
STARTCHAR onequarter
ENCODING 188
SWIDTH 1236 0
DWIDTH 10 0
BBX 10 7 0 -1
BITMAP
CC00
4980
4B00
5B80
1BC0
1080
1000
ENDCHAR
STARTCHAR onehalf
ENCODING 189
SWIDTH 1154 0
DWIDTH 9 0
BBX 9 7 0 -1
BITMAP
CC00
4B80
4880
5900
1A00
1380
1000
ENDCHAR
STARTCHAR threequarters
ENCODING 190
SWIDTH 1345 0
DWIDTH 11 0
BBX 11 7 0 -1
BITMAP
E600
36C0
7580
B5C0
FDE0
0C40
0800
ENDCHAR
STARTCHAR questiondown
ENCODING 191
SWIDTH 693 0
DWIDTH 6 0
BBX 5 7 0 0
BITMAP
70
A8
58
78
70
00
40
ENDCHAR
STARTCHAR Agrave
ENCODING 192
SWIDTH 936 0
DWIDTH 8 0
BBX 7 9 0 0
BITMAP
40
30
10
28
34
5C
6C
7E
C6
ENDCHAR
STARTCHAR Aacute
ENCODING 193
SWIDTH 936 0
DWIDTH 8 0
BBX 7 9 0 0
BITMAP
04
1C
10
28
34
5C
6C
7E
C6
ENDCHAR
STARTCHAR Acircumflex
ENCODING 194
SWIDTH 936 0
DWIDTH 8 0
BBX 7 9 0 0
BITMAP
10
18
10
28
34
5C
6C
7E
C6
ENDCHAR
STARTCHAR Atilde
ENCODING 195
SWIDTH 936 0
DWIDTH 8 0
BBX 7 9 0 0
BITMAP
7C
58
10
28
34
5C
6C
7E
C6
ENDCHAR
STARTCHAR Adieresis
ENCODING 196
SWIDTH 936 0
DWIDTH 8 0
BBX 7 8 0 0
BITMAP
2C
10
28
34
5C
6C
7E
C6
ENDCHAR
STARTCHAR Aring
ENCODING 197
SWIDTH 936 0
DWIDTH 8 0
BBX 7 9 0 0
BITMAP
38
18
10
28
34
5C
6C
7E
C6
ENDCHAR
STARTCHAR AE
ENCODING 198
SWIDTH 1198 0
DWIDTH 10 0
BBX 9 6 0 0
BITMAP
3F80
3400
5F80
6F80
7E00
C780
ENDCHAR
STARTCHAR Ccedilla
ENCODING 199
SWIDTH 852 0
DWIDTH 7 0
BBX 7 10 0 -3
BITMAP
38
5E
A4
C0
C0
7E
7C
10
30
30
ENDCHAR
STARTCHAR Egrave
ENCODING 200
SWIDTH 706 0
DWIDTH 6 0
BBX 5 9 0 0
BITMAP
80
70
00
F8
C0
F0
F0
C0
F8
ENDCHAR
STARTCHAR Eacute
ENCODING 201
SWIDTH 706 0
DWIDTH 6 0
BBX 5 9 0 0
BITMAP
08
38
00
F8
C0
F0
F0
C0
F8
ENDCHAR
STARTCHAR Ecircumflex
ENCODING 202
SWIDTH 706 0
DWIDTH 6 0
BBX 5 9 0 0
BITMAP
20
30
00
F8
C0
F0
F0
C0
F8
ENDCHAR
STARTCHAR Edieresis
ENCODING 203
SWIDTH 706 0
DWIDTH 6 0
BBX 5 8 0 0
BITMAP
58
00
F8
C0
F0
F0
C0
F8
ENDCHAR
STARTCHAR Igrave
ENCODING 204
SWIDTH 338 0
DWIDTH 3 0
BBX 3 9 -1 0
BITMAP
80
E0
00
60
60
60
60
60
60
ENDCHAR
STARTCHAR Iacute
ENCODING 205
SWIDTH 338 0
DWIDTH 3 0
BBX 4 9 0 0
BITMAP
10
60
00
C0
C0
C0
C0
C0
C0
ENDCHAR
STARTCHAR Icircumflex
ENCODING 206
SWIDTH 338 0
DWIDTH 3 0
BBX 3 9 0 0
BITMAP
C0
E0
00
C0
C0
C0
C0
C0
C0
ENDCHAR
STARTCHAR Idieresis
ENCODING 207
SWIDTH 338 0
DWIDTH 3 0
BBX 4 8 -1 0
BITMAP
D0
00
60
60
60
60
60
60
ENDCHAR
STARTCHAR Eth
ENCODING 208
SWIDTH 905 0
DWIDTH 7 0
BBX 7 6 0 0
BITMAP
FC
FA
06
E6
FE
FC
ENDCHAR
STARTCHAR Ntilde
ENCODING 209
SWIDTH 877 0
DWIDTH 7 0
BBX 7 9 0 0
BITMAP
74
58
00
E6
F6
F6
DE
D6
CE
ENDCHAR
STARTCHAR Ograve
ENCODING 210
SWIDTH 933 0
DWIDTH 7 0
BBX 7 9 0 0
BITMAP
40
30
38
5C
A6
C6
C6
7E
7C
ENDCHAR
STARTCHAR Oacute
ENCODING 211
SWIDTH 933 0
DWIDTH 7 0
BBX 7 9 0 0
BITMAP
04
1C
38
5C
A6
C6
C6
7E
7C
ENDCHAR
STARTCHAR Ocircumflex
ENCODING 212
SWIDTH 933 0
DWIDTH 7 0
BBX 7 9 0 0
BITMAP
10
18
38
5C
A6
C6
C6
7E
7C
ENDCHAR
STARTCHAR Otilde
ENCODING 213
SWIDTH 933 0
DWIDTH 7 0
BBX 7 9 0 0
BITMAP
7C
58
38
5C
A6
C6
C6
7E
7C
ENDCHAR
STARTCHAR Odieresis
ENCODING 214
SWIDTH 933 0
DWIDTH 7 0
BBX 7 8 0 0
BITMAP
2C
38
5C
A6
C6
C6
7E
7C
ENDCHAR
STARTCHAR multiply
ENCODING 215
SWIDTH 790 0
DWIDTH 6 0
BBX 6 6 0 0
BITMAP
AC
78
38
38
58
FC
ENDCHAR
STARTCHAR Oslash
ENCODING 216
SWIDTH 938 0
DWIDTH 8 0
BBX 7 9 0 -1
BITMAP
04
3C
5C
A6
C6
C6
7E
5C
60
ENDCHAR
STARTCHAR Ugrave
ENCODING 217
SWIDTH 905 0
DWIDTH 7 0
BBX 7 9 0 0
BITMAP
40
30
00
C6
C6
C6
E6
5A
7C
ENDCHAR
STARTCHAR Uacute
ENCODING 218
SWIDTH 905 0
DWIDTH 7 0
BBX 7 9 0 0
BITMAP
04
18
00
C6
C6
C6
E6
5A
7C
ENDCHAR
STARTCHAR Ucircumflex
ENCODING 219
SWIDTH 905 0
DWIDTH 7 0
BBX 7 9 0 0
BITMAP
10
28
00
C6
C6
C6
E6
5A
7C
ENDCHAR
STARTCHAR Udieresis
ENCODING 220
SWIDTH 905 0
DWIDTH 7 0
BBX 7 8 0 0
BITMAP
2C
00
C6
C6
C6
E6
5A
7C
ENDCHAR
STARTCHAR Yacute
ENCODING 221
SWIDTH 789 0
DWIDTH 6 0
BBX 6 9 0 0
BITMAP
04
38
40
AC
78
58
30
30
30
ENDCHAR
STARTCHAR Thorn
ENCODING 222
SWIDTH 798 0
DWIDTH 6 0
BBX 6 8 0 -1
BITMAP
C0
F8
FC
CC
CC
FC
F0
C0
ENDCHAR
STARTCHAR germandbls
ENCODING 223
SWIDTH 826 0
DWIDTH 7 0
BBX 6 8 0 -1
BITMAP
38
74
CC
FC
CC
FC
FC
C0
ENDCHAR
STARTCHAR agrave
ENCODING 224
SWIDTH 832 0
DWIDTH 7 0
BBX 6 9 0 0
BITMAP
40
70
00
38
74
CC
CC
BC
7C
ENDCHAR
STARTCHAR aacute
ENCODING 225
SWIDTH 832 0
DWIDTH 7 0
BBX 6 9 0 0
BITMAP
04
18
00
38
74
CC
CC
BC
7C
ENDCHAR
STARTCHAR acircumflex
ENCODING 226
SWIDTH 832 0
DWIDTH 7 0
BBX 6 8 0 0
BITMAP
30
30
28
74
CC
CC
BC
7C
ENDCHAR
STARTCHAR atilde
ENCODING 227
SWIDTH 832 0
DWIDTH 7 0
BBX 6 8 0 0
BITMAP
74
78
28
74
CC
CC
BC
7C
ENDCHAR
STARTCHAR adieresis
ENCODING 228
SWIDTH 832 0
DWIDTH 7 0
BBX 6 7 0 0
BITMAP
68
38
74
CC
CC
BC
7C
ENDCHAR
STARTCHAR aring
ENCODING 229
SWIDTH 832 0
DWIDTH 7 0
BBX 6 8 0 0
BITMAP
30
30
28
74
CC
CC
BC
7C
ENDCHAR
STARTCHAR ae
ENCODING 230
SWIDTH 1166 0
DWIDTH 9 0
BBX 9 6 0 0
BITMAP
3F80
7780
CF80
CF80
BC00
7F80
ENDCHAR
STARTCHAR ccedilla
ENCODING 231
SWIDTH 736 0
DWIDTH 6 0
BBX 6 9 0 -3
BITMAP
38
7C
C0
C0
B8
7C
10
30
30
ENDCHAR
STARTCHAR egrave
ENCODING 232
SWIDTH 666 0
DWIDTH 5 0
BBX 5 9 0 0
BITMAP
80
60
00
F8
F8
F8
F8
C0
F8
ENDCHAR
STARTCHAR eacute
ENCODING 233
SWIDTH 666 0
DWIDTH 5 0
BBX 5 9 0 0
BITMAP
08
38
00
F8
F8
F8
F8
C0
F8
ENDCHAR
STARTCHAR ecircumflex
ENCODING 234
SWIDTH 666 0
DWIDTH 5 0
BBX 5 8 0 0
BITMAP
20
30
F8
F8
F8
F8
C0
F8
ENDCHAR
STARTCHAR edieresis
ENCODING 235
SWIDTH 666 0
DWIDTH 5 0
BBX 5 7 0 0
BITMAP
58
F8
F8
F8
F8
C0
F8
ENDCHAR
STARTCHAR igrave
ENCODING 236
SWIDTH 337 0
DWIDTH 3 0
BBX 3 9 -1 0
BITMAP
80
E0
00
60
60
60
60
60
60
ENDCHAR
STARTCHAR iacute
ENCODING 237
SWIDTH 337 0
DWIDTH 3 0
BBX 4 9 0 0
BITMAP
10
60
00
C0
C0
C0
C0
C0
C0
ENDCHAR
STARTCHAR icircumflex
ENCODING 238
SWIDTH 337 0
DWIDTH 3 0
BBX 3 8 0 0
BITMAP
C0
E0
C0
C0
C0
C0
C0
C0
ENDCHAR
STARTCHAR idieresis
ENCODING 239
SWIDTH 337 0
DWIDTH 3 0
BBX 4 7 -1 0
BITMAP
D0
60
60
60
60
60
60
ENDCHAR
STARTCHAR eth
ENCODING 240
SWIDTH 783 0
DWIDTH 6 0
BBX 6 7 0 0
BITMAP
30
7C
0C
7C
DC
FC
78
ENDCHAR
STARTCHAR ntilde
ENCODING 241
SWIDTH 787 0
DWIDTH 6 0
BBX 6 8 0 0
BITMAP
74
78
EC
AC
FC
FC
DC
DC
ENDCHAR
STARTCHAR ograve
ENCODING 242
SWIDTH 833 0
DWIDTH 7 0
BBX 6 9 0 0
BITMAP
40
70
00
38
7C
CC
CC
BC
7C
ENDCHAR
STARTCHAR oacute
ENCODING 243
SWIDTH 833 0
DWIDTH 7 0
BBX 6 9 0 0
BITMAP
04
18
00
38
7C
CC
CC
BC
7C
ENDCHAR
STARTCHAR ocircumflex
ENCODING 244
SWIDTH 833 0
DWIDTH 7 0
BBX 6 8 0 0
BITMAP
30
30
28
7C
CC
CC
BC
7C
ENDCHAR
STARTCHAR otilde
ENCODING 245
SWIDTH 833 0
DWIDTH 7 0
BBX 6 8 0 0
BITMAP
74
78
28
7C
CC
CC
BC
7C
ENDCHAR
STARTCHAR odieresis
ENCODING 246
SWIDTH 833 0
DWIDTH 7 0
BBX 6 7 0 0
BITMAP
68
38
7C
CC
CC
BC
7C
ENDCHAR
STARTCHAR divide
ENCODING 247
SWIDTH 260 0
DWIDTH 2 0
BBX 2 5 0 0
BITMAP
C0
00
C0
C0
C0
ENDCHAR
STARTCHAR oslash
ENCODING 248
SWIDTH 832 0
DWIDTH 7 0
BBX 6 8 0 -1
BITMAP
08
3C
7C
CC
CC
BC
7C
40
ENDCHAR
STARTCHAR ugrave
ENCODING 249
SWIDTH 795 0
DWIDTH 6 0
BBX 6 9 0 0
BITMAP
40
70
00
CC
CC
CC
CC
FC
78
ENDCHAR
STARTCHAR uacute
ENCODING 250
SWIDTH 795 0
DWIDTH 6 0
BBX 6 9 0 0
BITMAP
04
18
00
CC
CC
CC
CC
FC
78
ENDCHAR
STARTCHAR ucircumflex
ENCODING 251
SWIDTH 795 0
DWIDTH 6 0
BBX 6 8 0 0
BITMAP
30
30
CC
CC
CC
CC
FC
78
ENDCHAR
STARTCHAR udieresis
ENCODING 252
SWIDTH 795 0
DWIDTH 6 0
BBX 6 7 0 0
BITMAP
68
CC
CC
CC
CC
FC
78
ENDCHAR
STARTCHAR yacute
ENCODING 253
SWIDTH 733 0
DWIDTH 6 0
BBX 6 9 0 0
BITMAP
08
3C
00
CC
78
78
30
30
30
ENDCHAR
STARTCHAR thorn
ENCODING 254
SWIDTH 833 0
DWIDTH 7 0
BBX 6 7 0 -1
BITMAP
C0
D8
DC
CC
D4
D8
C0
ENDCHAR
STARTCHAR ydieresis
ENCODING 255
SWIDTH 733 0
DWIDTH 6 0
BBX 6 7 0 0
BITMAP
58
CC
78
78
30
30
30
ENDCHAR
STARTCHAR Amacron
ENCODING 256
SWIDTH 936 0
DWIDTH 8 0
BBX 7 6 0 0
BITMAP
38
34
5C
6C
7E
C6
ENDCHAR
STARTCHAR amacron
ENCODING 257
SWIDTH 832 0
DWIDTH 7 0
BBX 6 6 0 0
BITMAP
38
74
CC
CC
BC
7C
ENDCHAR
STARTCHAR Abreve
ENCODING 258
SWIDTH 936 0
DWIDTH 8 0
BBX 7 8 0 0
BITMAP
18
10
28
34
5C
6C
7E
C6
ENDCHAR
STARTCHAR abreve
ENCODING 259
SWIDTH 832 0
DWIDTH 7 0
BBX 6 7 0 0
BITMAP
30
28
74
CC
CC
BC
7C
ENDCHAR
STARTCHAR Aogonek
ENCODING 260
SWIDTH 937 0
DWIDTH 8 0
BBX 7 8 0 -2
BITMAP
38
34
5C
6C
5E
E6
30
30
ENDCHAR
STARTCHAR aogonek
ENCODING 261
SWIDTH 832 0
DWIDTH 7 0
BBX 6 8 0 -2
BITMAP
38
74
CC
CC
BC
7C
20
20
ENDCHAR
STARTCHAR Cacute
ENCODING 262
SWIDTH 852 0
DWIDTH 7 0
BBX 7 9 0 0
BITMAP
04
1C
38
5E
A4
C0
C0
7E
7C
ENDCHAR
STARTCHAR cacute
ENCODING 263
SWIDTH 736 0
DWIDTH 6 0
BBX 6 9 0 0
BITMAP
04
18
00
38
7C
C0
C0
B8
7C
ENDCHAR
STARTCHAR Cdotaccent
ENCODING 266
SWIDTH 852 0
DWIDTH 7 0
BBX 7 8 0 0
BITMAP
10
38
5E
A4
C0
C0
7E
7C
ENDCHAR
STARTCHAR cdotaccent
ENCODING 267
SWIDTH 736 0
DWIDTH 6 0
BBX 6 7 0 0
BITMAP
10
38
7C
C0
C0
B8
7C
ENDCHAR
STARTCHAR Ccaron
ENCODING 268
SWIDTH 852 0
DWIDTH 7 0
BBX 7 9 0 0
BITMAP
18
10
38
5E
A4
C0
C0
7E
7C
ENDCHAR
STARTCHAR ccaron
ENCODING 269
SWIDTH 736 0
DWIDTH 6 0
BBX 6 8 0 0
BITMAP
38
30
28
7C
C0
C0
B8
7C
ENDCHAR
STARTCHAR Dcaron
ENCODING 270
SWIDTH 886 0
DWIDTH 7 0
BBX 7 9 0 0
BITMAP
28
10
00
FC
FA
C6
C6
FC
FC
ENDCHAR
STARTCHAR dcaron
ENCODING 271
SWIDTH 1084 0
DWIDTH 9 0
BBX 8 6 0 0
BITMAP
F1
FD
CC
CC
FC
F8
ENDCHAR
STARTCHAR Dcroat
ENCODING 272
SWIDTH 888 0
DWIDTH 7 0
BBX 7 6 0 0
BITMAP
FC
FA
C6
E6
FC
FC
ENDCHAR
STARTCHAR dcroat
ENCODING 273
SWIDTH 833 0
DWIDTH 7 0
BBX 6 6 0 0
BITMAP
F0
FC
CC
EC
DC
F8
ENDCHAR
STARTCHAR Emacron
ENCODING 274
SWIDTH 706 0
DWIDTH 6 0
BBX 5 6 0 0
BITMAP
F8
C0
F0
F0
C0
F8
ENDCHAR
STARTCHAR emacron
ENCODING 275
SWIDTH 666 0
DWIDTH 5 0
BBX 5 6 0 0
BITMAP
F8
F8
F8
F8
C0
F8
ENDCHAR
STARTCHAR Ebreve
ENCODING 276
SWIDTH 706 0
DWIDTH 6 0
BBX 5 8 0 0
BITMAP
30
00
F8
C0
F0
F0
C0
F8
ENDCHAR
STARTCHAR ebreve
ENCODING 277
SWIDTH 666 0
DWIDTH 5 0
BBX 5 7 0 0
BITMAP
30
F8
F8
F8
F8
C0
F8
ENDCHAR
STARTCHAR Edotaccent
ENCODING 278
SWIDTH 706 0
DWIDTH 6 0
BBX 5 9 0 0
BITMAP
30
30
00
F8
C0
F0
F0
C0
F8
ENDCHAR
STARTCHAR edotaccent
ENCODING 279
SWIDTH 666 0
DWIDTH 5 0
BBX 5 8 0 0
BITMAP
20
00
F8
F8
F8
F8
C0
F8
ENDCHAR
STARTCHAR Eogonek
ENCODING 280
SWIDTH 706 0
DWIDTH 6 0
BBX 5 8 0 -2
BITMAP
F8
C0
F0
F0
C0
F8
08
08
ENDCHAR
STARTCHAR eogonek
ENCODING 281
SWIDTH 666 0
DWIDTH 5 0
BBX 5 8 0 -2
BITMAP
F8
F8
F8
F8
C0
F8
08
18
ENDCHAR
STARTCHAR Ecaron
ENCODING 282
SWIDTH 706 0
DWIDTH 6 0
BBX 5 9 0 0
BITMAP
30
20
00
F8
C0
F0
F0
C0
F8
ENDCHAR
STARTCHAR ecaron
ENCODING 283
SWIDTH 666 0
DWIDTH 5 0
BBX 5 8 0 0
BITMAP
70
20
F8
F8
F8
F8
C0
F8
ENDCHAR
STARTCHAR Gbreve
ENCODING 286
SWIDTH 908 0
DWIDTH 7 0
BBX 7 8 0 0
BITMAP
18
38
5E
A4
C0
E6
5E
7E
ENDCHAR
STARTCHAR gbreve
ENCODING 287
SWIDTH 827 0
DWIDTH 7 0
BBX 6 7 0 0
BITMAP
30
28
7C
C0
CC
BC
7C
ENDCHAR
STARTCHAR Gdotaccent
ENCODING 288
SWIDTH 908 0
DWIDTH 7 0
BBX 7 8 0 0
BITMAP
10
38
5E
A4
C0
E6
5E
7E
ENDCHAR
STARTCHAR gdotaccent
ENCODING 289
SWIDTH 827 0
DWIDTH 7 0
BBX 6 7 0 0
BITMAP
10
38
7C
C0
CC
BC
7C
ENDCHAR
STARTCHAR Gcommaaccent
ENCODING 290
SWIDTH 908 0
DWIDTH 7 0
BBX 7 10 0 -3
BITMAP
38
5E
A4
C0
E6
5E
7E
00
10
10
ENDCHAR
STARTCHAR gcommaaccent
ENCODING 291
SWIDTH 827 0
DWIDTH 7 0
BBX 6 6 0 0
BITMAP
38
7C
C0
CC
BC
7C
ENDCHAR
STARTCHAR Hcircumflex
ENCODING 292
SWIDTH 901 0
DWIDTH 7 0
BBX 7 9 0 0
BITMAP
10
28
00
C6
C6
FE
FE
C6
C6
ENDCHAR
STARTCHAR hcircumflex
ENCODING 293
SWIDTH 830 0
DWIDTH 7 0
BBX 6 8 0 0
BITMAP
30
30
CC
CC
FC
FC
CC
CC
ENDCHAR
STARTCHAR Hbar
ENCODING 294
SWIDTH 901 0
DWIDTH 7 0
BBX 7 6 0 0
BITMAP
FE
C6
FE
FE
C6
C6
ENDCHAR
STARTCHAR hbar
ENCODING 295
SWIDTH 830 0
DWIDTH 7 0
BBX 7 6 0 0
BITMAP
CC
FE
FC
FC
CC
CC
ENDCHAR
STARTCHAR Itilde
ENCODING 296
SWIDTH 338 0
DWIDTH 3 0
BBX 5 9 -1 0
BITMAP
E8
F0
00
60
60
60
60
60
60
ENDCHAR
STARTCHAR itilde
ENCODING 297
SWIDTH 337 0
DWIDTH 3 0
BBX 5 8 -1 0
BITMAP
E8
F0
60
60
60
60
60
60
ENDCHAR
STARTCHAR Imacron
ENCODING 298
SWIDTH 338 0
DWIDTH 3 0
BBX 2 6 0 0
BITMAP
C0
C0
C0
C0
C0
C0
ENDCHAR
STARTCHAR imacron
ENCODING 299
SWIDTH 337 0
DWIDTH 3 0
BBX 2 6 0 0
BITMAP
C0
C0
C0
C0
C0
C0
ENDCHAR
STARTCHAR Ibreve
ENCODING 300
SWIDTH 338 0
DWIDTH 3 0
BBX 3 8 0 0
BITMAP
E0
00
C0
C0
C0
C0
C0
C0
ENDCHAR
STARTCHAR ibreve
ENCODING 301
SWIDTH 337 0
DWIDTH 3 0
BBX 3 7 0 0
BITMAP
E0
C0
C0
C0
C0
C0
C0
ENDCHAR
STARTCHAR Iogonek
ENCODING 302
SWIDTH 338 0
DWIDTH 3 0
BBX 2 8 0 -2
BITMAP
C0
C0
C0
C0
C0
C0
40
40
ENDCHAR
STARTCHAR iogonek
ENCODING 303
SWIDTH 337 0
DWIDTH 3 0
BBX 2 8 0 -2
BITMAP
C0
C0
C0
C0
C0
C0
40
40
ENDCHAR
STARTCHAR Idotaccent
ENCODING 304
SWIDTH 338 0
DWIDTH 3 0
BBX 2 8 0 0
BITMAP
40
00
C0
C0
C0
C0
C0
C0
ENDCHAR
STARTCHAR dotlessi
ENCODING 305
SWIDTH 337 0
DWIDTH 3 0
BBX 2 6 0 0
BITMAP
C0
C0
C0
C0
C0
C0
ENDCHAR
STARTCHAR IJ
ENCODING 306
SWIDTH 774 0
DWIDTH 6 0
BBX 6 6 0 0
BITMAP
CC
CC
CC
CC
DC
D8
ENDCHAR
STARTCHAR ij
ENCODING 307
SWIDTH 729 0
DWIDTH 6 0
BBX 6 7 0 -1
BITMAP
D4
D4
D4
D4
D8
D8
10
ENDCHAR
STARTCHAR Jcircumflex
ENCODING 308
SWIDTH 434 0
DWIDTH 3 0
BBX 3 9 0 0
BITMAP
20
60
00
60
60
60
60
E0
C0
ENDCHAR
STARTCHAR jcircumflex
ENCODING 309
SWIDTH 393 0
DWIDTH 3 0
BBX 3 9 0 -1
BITMAP
40
60
60
60
60
60
60
C0
C0
ENDCHAR
STARTCHAR Kcommaaccent
ENCODING 310
SWIDTH 815 0
DWIDTH 7 0
BBX 6 9 0 -3
BITMAP
CC
D8
F8
D8
D4
CC
00
10
30
ENDCHAR
STARTCHAR kcommaaccent
ENCODING 311
SWIDTH 801 0
DWIDTH 6 0
BBX 6 9 0 -3
BITMAP
CC
D4
D8
F8
D8
CC
00
30
30
ENDCHAR
STARTCHAR kgreenlandic
ENCODING 312
SWIDTH 801 0
DWIDTH 6 0
BBX 6 6 0 0
BITMAP
CC
D4
D8
F8
D8
CC
ENDCHAR
STARTCHAR Lacute
ENCODING 313
SWIDTH 604 0
DWIDTH 5 0
BBX 5 9 0 0
BITMAP
08
30
00
C0
C0
C0
C0
C0
F8
ENDCHAR
STARTCHAR lacute
ENCODING 314
SWIDTH 583 0
DWIDTH 5 0
BBX 4 9 0 0
BITMAP
10
60
00
C0
C0
C0
C0
C0
F0
ENDCHAR
STARTCHAR Lcommaaccent
ENCODING 315
SWIDTH 604 0
DWIDTH 5 0
BBX 5 9 0 -3
BITMAP
C0
C0
C0
C0
C0
F8
00
20
60
ENDCHAR
STARTCHAR lcommaaccent
ENCODING 316
SWIDTH 583 0
DWIDTH 5 0
BBX 4 9 0 -3
BITMAP
C0
C0
C0
C0
C0
F0
00
20
60
ENDCHAR
STARTCHAR Lcaron
ENCODING 317
SWIDTH 856 0
DWIDTH 7 0
BBX 7 6 0 0
BITMAP
C6
C4
C0
C0
C0
F8
ENDCHAR
STARTCHAR lcaron
ENCODING 318
SWIDTH 584 0
DWIDTH 5 0
BBX 4 6 0 0
BITMAP
D0
D0
C0
C0
C0
F0
ENDCHAR
STARTCHAR Ldot
ENCODING 319
SWIDTH 604 0
DWIDTH 5 0
BBX 5 6 0 0
BITMAP
C0
D0
D0
C0
C0
F8
ENDCHAR
STARTCHAR ldot
ENCODING 320
SWIDTH 582 0
DWIDTH 5 0
BBX 4 6 0 0
BITMAP
C0
D0
D0
C0
C0
F0
ENDCHAR
STARTCHAR Lslash
ENCODING 321
SWIDTH 604 0
DWIDTH 5 0
BBX 6 6 -1 0
BITMAP
60
78
F0
E0
60
7C
ENDCHAR
STARTCHAR lslash
ENCODING 322
SWIDTH 581 0
DWIDTH 5 0
BBX 5 6 -1 0
BITMAP
60
68
78
E0
60
78
ENDCHAR
STARTCHAR Nacute
ENCODING 323
SWIDTH 877 0
DWIDTH 7 0
BBX 7 9 0 0
BITMAP
04
18
00
E6
F6
F6
DE
D6
CE
ENDCHAR
STARTCHAR nacute
ENCODING 324
SWIDTH 787 0
DWIDTH 6 0
BBX 6 9 0 0
BITMAP
04
38
00
EC
AC
FC
FC
DC
DC
ENDCHAR
STARTCHAR Ncommaaccent
ENCODING 325
SWIDTH 877 0
DWIDTH 7 0
BBX 7 9 0 -3
BITMAP
E6
F6
F6
DE
D6
CE
00
10
30
ENDCHAR
STARTCHAR ncommaaccent
ENCODING 326
SWIDTH 787 0
DWIDTH 6 0
BBX 6 9 0 -3
BITMAP
EC
AC
FC
FC
DC
DC
00
30
30
ENDCHAR
STARTCHAR Ncaron
ENCODING 327
SWIDTH 877 0
DWIDTH 7 0
BBX 7 9 0 0
BITMAP
28
10
00
E6
F6
F6
DE
D6
CE
ENDCHAR
STARTCHAR ncaron
ENCODING 328
SWIDTH 787 0
DWIDTH 6 0
BBX 6 8 0 0
BITMAP
30
30
EC
AC
FC
FC
DC
DC
ENDCHAR
STARTCHAR Eng
ENCODING 330
SWIDTH 874 0
DWIDTH 7 0
BBX 7 9 0 -3
BITMAP
E6
F6
F6
D6
D6
CE
0A
04
18
ENDCHAR
STARTCHAR eng
ENCODING 331
SWIDTH 691 0
DWIDTH 6 0
BBX 5 8 0 -2
BITMAP
E8
A8
F8
F8
D8
D8
08
18
ENDCHAR
STARTCHAR Omacron
ENCODING 332
SWIDTH 933 0
DWIDTH 7 0
BBX 7 7 0 0
BITMAP
38
5C
A6
C6
C6
7E
7C
ENDCHAR
STARTCHAR omacron
ENCODING 333
SWIDTH 833 0
DWIDTH 7 0
BBX 6 6 0 0
BITMAP
38
7C
CC
CC
BC
7C
ENDCHAR
STARTCHAR Obreve
ENCODING 334
SWIDTH 933 0
DWIDTH 7 0
BBX 7 8 0 0
BITMAP
18
38
5C
A6
C6
C6
7E
7C
ENDCHAR
STARTCHAR obreve
ENCODING 335
SWIDTH 833 0
DWIDTH 7 0
BBX 6 7 0 0
BITMAP
30
28
7C
CC
CC
BC
7C
ENDCHAR
STARTCHAR Ohungarumlaut
ENCODING 336
SWIDTH 933 0
DWIDTH 7 0
BBX 8 9 0 0
BITMAP
09
36
38
5C
A6
C6
C6
7E
7C
ENDCHAR
STARTCHAR ohungarumlaut
ENCODING 337
SWIDTH 833 0
DWIDTH 7 0
BBX 7 9 0 0
BITMAP
12
7E
00
38
7C
CC
CC
BC
7C
ENDCHAR
STARTCHAR OE
ENCODING 338
SWIDTH 1317 0
DWIDTH 11 0
BBX 10 7 0 0
BITMAP
3800
57C0
AE00
C780
C780
7E00
7FC0
ENDCHAR
STARTCHAR oe
ENCODING 339
SWIDTH 1174 0
DWIDTH 9 0
BBX 9 6 0 0
BITMAP
3B80
7F80
CB80
CF80
BC00
7F80
ENDCHAR
STARTCHAR Racute
ENCODING 340
SWIDTH 843 0
DWIDTH 7 0
BBX 7 9 0 0
BITMAP
08
30
00
FC
FE
F4
FC
D4
CC
ENDCHAR
STARTCHAR Rcommaaccent
ENCODING 342
SWIDTH 843 0
DWIDTH 7 0
BBX 7 9 0 -3
BITMAP
FC
FE
F4
FC
D4
CC
00
30
30
ENDCHAR
STARTCHAR rcommaaccent
ENCODING 343
SWIDTH 831 0
DWIDTH 7 0
BBX 6 9 0 -3
BITMAP
F8
F4
CC
FC
F8
DC
00
30
30
ENDCHAR
STARTCHAR Rcaron
ENCODING 344
SWIDTH 843 0
DWIDTH 7 0
BBX 7 9 0 0
BITMAP
60
60
00
FC
FE
F4
FC
D4
CC
ENDCHAR
STARTCHAR rcaron
ENCODING 345
SWIDTH 831 0
DWIDTH 7 0
BBX 6 8 0 0
BITMAP
38
30
F8
F4
CC
FC
F8
DC
ENDCHAR
STARTCHAR Sacute
ENCODING 346
SWIDTH 682 0
DWIDTH 5 0
BBX 5 9 0 0
BITMAP
08
38
30
F8
C0
B8
68
38
F8
ENDCHAR
STARTCHAR sacute
ENCODING 347
SWIDTH 683 0
DWIDTH 5 0
BBX 5 9 0 0
BITMAP
08
38
00
70
B8
E0
78
48
F8
ENDCHAR
STARTCHAR Scircumflex
ENCODING 348
SWIDTH 682 0
DWIDTH 5 0
BBX 5 9 0 0
BITMAP
20
30
30
F8
C0
B8
68
38
F8
ENDCHAR
STARTCHAR scircumflex
ENCODING 349
SWIDTH 683 0
DWIDTH 5 0
BBX 5 8 0 0
BITMAP
20
30
70
B8
E0
78
48
F8
ENDCHAR
STARTCHAR Scedilla
ENCODING 350
SWIDTH 682 0
DWIDTH 5 0
BBX 5 10 0 -3
BITMAP
30
F8
C0
B8
68
38
F8
20
60
60
ENDCHAR
STARTCHAR scedilla
ENCODING 351
SWIDTH 683 0
DWIDTH 5 0
BBX 5 9 0 -3
BITMAP
70
B8
E0
78
48
F8
20
60
60
ENDCHAR
STARTCHAR Scaron
ENCODING 352
SWIDTH 682 0
DWIDTH 5 0
BBX 5 9 0 0
BITMAP
30
20
30
F8
C0
B8
68
38
F8
ENDCHAR
STARTCHAR scaron
ENCODING 353
SWIDTH 683 0
DWIDTH 5 0
BBX 5 8 0 0
BITMAP
30
20
70
B8
E0
78
48
F8
ENDCHAR
STARTCHAR Tcommaaccent
ENCODING 354
SWIDTH 591 0
DWIDTH 5 0
BBX 4 8 0 -2
BITMAP
F0
60
60
60
60
60
60
60
ENDCHAR
STARTCHAR tcommaaccent
ENCODING 355
SWIDTH 588 0
DWIDTH 5 0
BBX 4 8 0 -2
BITMAP
F0
F0
60
60
60
60
60
60
ENDCHAR
STARTCHAR Tcaron
ENCODING 356
SWIDTH 591 0
DWIDTH 5 0
BBX 4 9 0 0
BITMAP
70
60
00
F0
60
60
60
60
60
ENDCHAR
STARTCHAR tcaron
ENCODING 357
SWIDTH 842 0
DWIDTH 7 0
BBX 6 6 0 0
BITMAP
F4
F4
60
60
60
60
ENDCHAR
STARTCHAR Tbar
ENCODING 358
SWIDTH 591 0
DWIDTH 5 0
BBX 4 6 0 0
BITMAP
F0
60
F0
F0
60
60
ENDCHAR
STARTCHAR tbar
ENCODING 359
SWIDTH 588 0
DWIDTH 5 0
BBX 4 6 0 0
BITMAP
F0
F0
60
F0
F0
60
ENDCHAR
STARTCHAR Utilde
ENCODING 360
SWIDTH 905 0
DWIDTH 7 0
BBX 7 9 0 0
BITMAP
7C
58
00
C6
C6
C6
E6
5A
7C
ENDCHAR
STARTCHAR utilde
ENCODING 361
SWIDTH 795 0
DWIDTH 6 0
BBX 6 8 0 0
BITMAP
74
78
CC
CC
CC
CC
FC
78
ENDCHAR
STARTCHAR Umacron
ENCODING 362
SWIDTH 905 0
DWIDTH 7 0
BBX 7 6 0 0
BITMAP
C6
C6
C6
E6
5A
7C
ENDCHAR
STARTCHAR umacron
ENCODING 363
SWIDTH 795 0
DWIDTH 6 0
BBX 6 6 0 0
BITMAP
CC
CC
CC
CC
FC
78
ENDCHAR
STARTCHAR Ubreve
ENCODING 364
SWIDTH 905 0
DWIDTH 7 0
BBX 7 8 0 0
BITMAP
38
00
C6
C6
C6
E6
5A
7C
ENDCHAR
STARTCHAR ubreve
ENCODING 365
SWIDTH 795 0
DWIDTH 6 0
BBX 6 7 0 0
BITMAP
30
CC
CC
CC
CC
FC
78
ENDCHAR
STARTCHAR Uring
ENCODING 366
SWIDTH 905 0
DWIDTH 7 0
BBX 7 9 0 0
BITMAP
38
10
00
C6
C6
C6
E6
5A
7C
ENDCHAR
STARTCHAR uring
ENCODING 367
SWIDTH 795 0
DWIDTH 6 0
BBX 6 8 0 0
BITMAP
30
30
CC
CC
CC
CC
FC
78
ENDCHAR
STARTCHAR Uhungarumlaut
ENCODING 368
SWIDTH 905 0
DWIDTH 7 0
BBX 8 9 0 0
BITMAP
0A
7F
00
C6
C6
C6
E6
5A
7C
ENDCHAR
STARTCHAR uhungarumlaut
ENCODING 369
SWIDTH 795 0
DWIDTH 6 0
BBX 7 9 0 0
BITMAP
12
7C
00
CC
CC
CC
CC
FC
78
ENDCHAR
STARTCHAR Uogonek
ENCODING 370
SWIDTH 905 0
DWIDTH 7 0
BBX 7 8 0 -2
BITMAP
C6
C6
C6
E6
5A
7C
30
30
ENDCHAR
STARTCHAR uogonek
ENCODING 371
SWIDTH 794 0
DWIDTH 6 0
BBX 6 8 0 -2
BITMAP
CC
CC
CC
CC
FC
78
20
20
ENDCHAR
STARTCHAR Ycircumflex
ENCODING 374
SWIDTH 789 0
DWIDTH 6 0
BBX 6 9 0 0
BITMAP
10
30
40
AC
78
58
30
30
30
ENDCHAR
STARTCHAR ycircumflex
ENCODING 375
SWIDTH 733 0
DWIDTH 6 0
BBX 6 8 0 0
BITMAP
30
30
CC
78
78
30
30
30
ENDCHAR
STARTCHAR Ydieresis
ENCODING 376
SWIDTH 789 0
DWIDTH 6 0
BBX 6 8 0 0
BITMAP
78
40
AC
78
58
30
30
30
ENDCHAR
STARTCHAR Zacute
ENCODING 377
SWIDTH 854 0
DWIDTH 7 0
BBX 7 9 0 0
BITMAP
04
18
00
FE
FE
3C
F0
EE
FE
ENDCHAR
STARTCHAR zacute
ENCODING 378
SWIDTH 714 0
DWIDTH 6 0
BBX 6 9 0 0
BITMAP
08
3C
00
F8
F8
30
70
A0
F8
ENDCHAR
STARTCHAR Zdotaccent
ENCODING 379
SWIDTH 854 0
DWIDTH 7 0
BBX 7 8 0 0
BITMAP
10
00
FE
FE
3C
F0
EE
FE
ENDCHAR
STARTCHAR zdotaccent
ENCODING 380
SWIDTH 714 0
DWIDTH 6 0
BBX 5 7 0 0
BITMAP
30
F8
F8
30
70
A0
F8
ENDCHAR
STARTCHAR Zcaron
ENCODING 381
SWIDTH 854 0
DWIDTH 7 0
BBX 7 9 0 0
BITMAP
38
30
00
FE
FE
3C
F0
EE
FE
ENDCHAR
STARTCHAR zcaron
ENCODING 382
SWIDTH 714 0
DWIDTH 6 0
BBX 5 8 0 0
BITMAP
30
30
F8
F8
30
70
A0
F8
ENDCHAR
STARTCHAR florin
ENCODING 402
SWIDTH 388 0
DWIDTH 3 0
BBX 3 8 0 -1
BITMAP
20
60
E0
E0
40
40
C0
80
ENDCHAR
STARTCHAR uni01C4
ENCODING 452
SWIDTH 1740 0
DWIDTH 14 0
BBX 14 9 0 0
BITMAP
0050
0020
0000
FDFC
FBFC
C678
C7E0
FDDC
FDFC
ENDCHAR
STARTCHAR uni01C5
ENCODING 453
SWIDTH 1601 0
DWIDTH 13 0
BBX 13 8 0 0
BITMAP
0060
0060
FDF8
FBF0
C650
C660
FCC0
FDF8
ENDCHAR
STARTCHAR Scommaaccent
ENCODING 536
SWIDTH 682 0
DWIDTH 5 0
BBX 5 10 0 -3
BITMAP
30
F8
C0
B8
68
38
F8
00
20
20
ENDCHAR
STARTCHAR scommaaccent
ENCODING 537
SWIDTH 683 0
DWIDTH 5 0
BBX 5 9 0 -3
BITMAP
70
B8
E0
78
48
F8
00
20
20
ENDCHAR
STARTCHAR uni021A
ENCODING 538
SWIDTH 591 0
DWIDTH 5 0
BBX 4 9 0 -3
BITMAP
F0
60
60
60
60
60
00
20
60
ENDCHAR
STARTCHAR uni021B
ENCODING 539
SWIDTH 588 0
DWIDTH 5 0
BBX 4 9 0 -3
BITMAP
F0
F0
60
60
60
60
00
20
60
ENDCHAR
STARTCHAR uni0237
ENCODING 567
SWIDTH 393 0
DWIDTH 3 0
BBX 3 7 0 -1
BITMAP
60
60
60
60
60
C0
C0
ENDCHAR
STARTCHAR circumflex
ENCODING 710
SWIDTH 376 0
DWIDTH 3 0
BBX 3 2 0 6
BITMAP
40
A0
ENDCHAR
STARTCHAR caron
ENCODING 711
SWIDTH 362 0
DWIDTH 3 0
BBX 3 2 0 6
BITMAP
E0
C0
ENDCHAR
STARTCHAR breve
ENCODING 728
SWIDTH 360 0
DWIDTH 3 0
BBX 3 1 0 6
BITMAP
E0
ENDCHAR
STARTCHAR dotaccent
ENCODING 729
SWIDTH 255 0
DWIDTH 2 0
BBX 2 1 0 5
BITMAP
C0
ENDCHAR
STARTCHAR ring
ENCODING 730
SWIDTH 330 0
DWIDTH 3 0
BBX 2 2 0 6
BITMAP
C0
C0
ENDCHAR
STARTCHAR ogonek
ENCODING 731
SWIDTH 250 0
DWIDTH 2 0
BBX 2 2 0 -2
BITMAP
C0
C0
ENDCHAR
STARTCHAR tilde
ENCODING 732
SWIDTH 665 0
DWIDTH 5 0
BBX 5 2 0 4
BITMAP
F8
B0
ENDCHAR
STARTCHAR hungarumlaut
ENCODING 733
SWIDTH 837 0
DWIDTH 7 0
BBX 6 2 0 6
BITMAP
24
FC
ENDCHAR
STARTCHAR uni0307
ENCODING 775
SWIDTH 260 0
DWIDTH 2 0
BBX 2 2 0 3
BITMAP
C0
C0
ENDCHAR
STARTCHAR uni030F
ENCODING 783
SWIDTH 554 0
DWIDTH 4 0
BBX 4 3 0 6
BITMAP
A0
50
50
ENDCHAR
STARTCHAR uni0311
ENCODING 785
SWIDTH 375 0
DWIDTH 3 0
BBX 3 1 0 6
BITMAP
E0
ENDCHAR
STARTCHAR uni0326
ENCODING 806
SWIDTH 274 0
DWIDTH 2 0
BBX 2 2 0 -3
BITMAP
C0
C0
ENDCHAR
STARTCHAR Omega
ENCODING 937
SWIDTH 92 0
DWIDTH 1 0
BBX 1 1 0 0
BITMAP
00
ENDCHAR
STARTCHAR uni00B5.dup2
ENCODING 956
SWIDTH 802 0
DWIDTH 6 0
BBX 6 7 0 -1
BITMAP
CC
CC
CC
CC
DC
D8
C0
ENDCHAR
STARTCHAR pi
ENCODING 960
SWIDTH 92 0
DWIDTH 1 0
BBX 1 1 0 0
BITMAP
00
ENDCHAR
STARTCHAR endash
ENCODING 8211
SWIDTH 473 0
DWIDTH 4 0
BBX 3 1 0 3
BITMAP
E0
ENDCHAR
STARTCHAR emdash
ENCODING 8212
SWIDTH 615 0
DWIDTH 5 0
BBX 5 1 0 3
BITMAP
F8
ENDCHAR
STARTCHAR quoteleft
ENCODING 8216
SWIDTH 254 0
DWIDTH 2 0
BBX 2 2 0 4
BITMAP
C0
C0
ENDCHAR
STARTCHAR quoteright
ENCODING 8217
SWIDTH 251 0
DWIDTH 2 0
BBX 2 2 0 4
BITMAP
C0
C0
ENDCHAR
STARTCHAR quotesinglbase
ENCODING 8218
SWIDTH 252 0
DWIDTH 2 0
BBX 2 2 0 -1
BITMAP
C0
C0
ENDCHAR
STARTCHAR quotedblleft
ENCODING 8220
SWIDTH 535 0
DWIDTH 4 0
BBX 4 2 0 4
BITMAP
D0
F0
ENDCHAR
STARTCHAR quotedblright
ENCODING 8221
SWIDTH 532 0
DWIDTH 4 0
BBX 4 2 0 4
BITMAP
F0
D0
ENDCHAR
STARTCHAR quotedblbase
ENCODING 8222
SWIDTH 533 0
DWIDTH 4 0
BBX 4 2 0 -1
BITMAP
F0
F0
ENDCHAR
STARTCHAR dagger
ENCODING 8224
SWIDTH 636 0
DWIDTH 5 0
BBX 5 6 0 0
BITMAP
50
D8
50
50
50
50
ENDCHAR
STARTCHAR daggerdbl
ENCODING 8225
SWIDTH 648 0
DWIDTH 5 0
BBX 5 6 0 0
BITMAP
30
F8
30
F8
F8
30
ENDCHAR
STARTCHAR bullet
ENCODING 8226
SWIDTH 501 0
DWIDTH 4 0
BBX 4 4 0 1
BITMAP
20
D0
90
60
ENDCHAR
STARTCHAR ellipsis
ENCODING 8230
SWIDTH 676 0
DWIDTH 5 0
BBX 5 1 0 0
BITMAP
E8
ENDCHAR
STARTCHAR perthousand
ENCODING 8240
SWIDTH 447 0
DWIDTH 4 0
BBX 3 7 0 -1
BITMAP
20
60
60
40
40
C0
C0
ENDCHAR
STARTCHAR guilsinglleft
ENCODING 8249
SWIDTH 465 0
DWIDTH 4 0
BBX 3 4 0 1
BITMAP
20
E0
E0
20
ENDCHAR
STARTCHAR guilsinglright
ENCODING 8250
SWIDTH 465 0
DWIDTH 4 0
BBX 3 4 0 1
BITMAP
80
E0
A0
C0
ENDCHAR
STARTCHAR fraction
ENCODING 8260
SWIDTH 447 0
DWIDTH 4 0
BBX 3 7 0 -1
BITMAP
20
60
60
40
40
C0
C0
ENDCHAR
STARTCHAR uni2074
ENCODING 8308
SWIDTH 528 0
DWIDTH 4 0
BBX 4 5 0 1
BITMAP
60
50
F0
E0
10
ENDCHAR
STARTCHAR Euro
ENCODING 8364
SWIDTH 781 0
DWIDTH 6 0
BBX 6 7 0 0
BITMAP
1C
28
74
F8
F8
7C
3C
ENDCHAR
STARTCHAR trademark
ENCODING 8482
SWIDTH 1503 0
DWIDTH 12 0
BBX 12 4 0 2
BITMAP
F630
2770
25B0
25F0
ENDCHAR
STARTCHAR partialdiff
ENCODING 8706
SWIDTH 108 0
DWIDTH 1 0
BBX 1 1 0 0
BITMAP
00
ENDCHAR
STARTCHAR uni2206
ENCODING 8710
SWIDTH 108 0
DWIDTH 1 0
BBX 1 1 0 0
BITMAP
00
ENDCHAR
STARTCHAR product
ENCODING 8719
SWIDTH 521 0
DWIDTH 4 0
BBX 4 6 0 0
BITMAP
60
60
D0
B0
60
60
ENDCHAR
STARTCHAR summation
ENCODING 8721
SWIDTH 108 0
DWIDTH 1 0
BBX 1 1 0 0
BITMAP
00
ENDCHAR
STARTCHAR minus
ENCODING 8722
SWIDTH 555 0
DWIDTH 4 0
BBX 4 1 0 3
BITMAP
F0
ENDCHAR
STARTCHAR radical
ENCODING 8730
SWIDTH 108 0
DWIDTH 1 0
BBX 1 1 0 0
BITMAP
00
ENDCHAR
STARTCHAR infinity
ENCODING 8734
SWIDTH 108 0
DWIDTH 1 0
BBX 1 1 0 0
BITMAP
00
ENDCHAR
STARTCHAR integral
ENCODING 8747
SWIDTH 362 0
DWIDTH 3 0
BBX 3 8 0 -1
BITMAP
60
60
40
40
40
40
C0
80
ENDCHAR
STARTCHAR approxequal
ENCODING 8776
SWIDTH 665 0
DWIDTH 5 0
BBX 5 4 0 2
BITMAP
F8
B0
C8
B0
ENDCHAR
STARTCHAR notequal
ENCODING 8800
SWIDTH 473 0
DWIDTH 4 0
BBX 3 7 0 -1
BITMAP
20
E0
E0
E0
60
C0
C0
ENDCHAR
STARTCHAR lessequal
ENCODING 8804
SWIDTH 108 0
DWIDTH 1 0
BBX 1 1 0 0
BITMAP
00
ENDCHAR
STARTCHAR greaterequal
ENCODING 8805
SWIDTH 108 0
DWIDTH 1 0
BBX 1 1 0 0
BITMAP
00
ENDCHAR
STARTCHAR lozenge
ENCODING 9674
SWIDTH 521 0
DWIDTH 4 0
BBX 4 6 0 0
BITMAP
60
60
D0
B0
60
60
ENDCHAR
STARTCHAR uniF8FF
ENCODING 63743
SWIDTH 108 0
DWIDTH 1 0
BBX 1 1 0 0
BITMAP
00
ENDCHAR
STARTCHAR uniFB01
ENCODING 64257
SWIDTH 962 0
DWIDTH 8 0
BBX 7 6 0 0
BITMAP
FE
FE
C6
FE
C6
C6
ENDCHAR
STARTCHAR uniFB02
ENCODING 64258
SWIDTH 1208 0
DWIDTH 10 0
BBX 9 6 0 0
BITMAP
FE00
FE00
C600
FE00
C600
C780
ENDCHAR
STARTCHAR .notdef
ENCODING -1
SWIDTH 108 0
DWIDTH 1 0
BBX 1 1 0 0
BITMAP
00
ENDCHAR
ENDFONT
